<svg width="133" height="44" viewBox="0 0 133 44" fill="none" xmlns="http://www.w3.org/2000/svg">
<path d="M108.413 44.0003C106.991 44.0003 105.874 43.4765 105.062 42.4289C104.249 41.4162 103.843 40.194 103.843 38.7622C103.843 37.3305 104.249 36.1083 105.062 35.0956C105.874 34.0479 106.991 33.5241 108.413 33.5241H125.505C126.927 33.5241 128.044 34.0479 128.856 35.0956C129.669 36.1083 130.075 37.3305 130.075 38.7622C130.075 40.194 129.669 41.4162 128.856 42.4289C128.044 43.4765 126.927 44.0003 125.505 44.0003H108.413ZM125.962 37.2956C124.54 37.2956 123.423 36.7892 122.611 35.7765C121.798 34.7289 121.392 33.4892 121.392 32.0575C121.392 30.6257 121.798 29.4035 122.611 28.3908C123.423 27.3432 124.54 26.8194 125.962 26.8194H128.43C129.852 26.8194 130.969 27.3432 131.781 28.3908C132.594 29.4035 133 30.6257 133 32.0575C133 33.4892 132.594 34.7289 131.781 35.7765C130.969 36.7892 129.852 37.2956 128.43 37.2956H125.962ZM111.338 30.5908C109.916 30.5908 108.799 30.0844 107.986 29.0717C107.174 28.0241 106.768 26.7844 106.768 25.3527C106.768 23.921 107.174 22.6987 107.986 21.686C108.799 20.6384 109.916 20.1146 111.338 20.1146H125.505C126.927 20.1146 128.044 20.6384 128.856 21.686C129.669 22.6987 130.075 23.921 130.075 25.3527C130.075 26.7844 129.669 28.0241 128.856 29.0717C128.044 30.0844 126.927 30.5908 125.505 30.5908H111.338ZM106.463 23.886C105.041 23.886 103.924 23.3797 103.112 22.367C102.299 21.3194 101.893 20.0797 101.893 18.6479C101.893 17.2162 102.299 15.994 103.112 14.9813C103.924 13.9336 105.041 13.4098 106.463 13.4098H110.881C112.303 13.4098 113.42 13.9336 114.232 14.9813C115.045 15.994 115.451 17.2162 115.451 18.6479C115.451 20.0797 115.045 21.3194 114.232 22.367C113.42 23.3797 112.303 23.886 110.881 23.886H106.463ZM111.338 17.1813C109.916 17.1813 108.799 16.6749 107.986 15.6622C107.174 14.6146 106.768 13.3749 106.768 11.9432C106.768 10.5114 107.174 9.28921 107.986 8.27651C108.799 7.22889 109.916 6.70508 111.338 6.70508H128.43C129.852 6.70508 130.969 7.22889 131.781 8.27651C132.594 9.28921 133 10.5114 133 11.9432C133 13.3749 132.594 14.6146 131.781 15.6622C130.969 16.6749 129.852 17.1813 128.43 17.1813H111.338Z" fill="#343434"/>
<path d="M87.0897 44.0003C85.6679 44.0003 84.5508 43.4765 83.7383 42.4289C82.9259 41.4162 82.5197 40.194 82.5197 38.7622C82.5197 37.3305 82.9259 36.1083 83.7383 35.0956C84.5508 34.0479 85.6679 33.5241 87.0897 33.5241H102.232C103.654 33.5241 104.771 34.0479 105.583 35.0956C106.396 36.1083 106.802 37.3305 106.802 38.7622C106.802 40.194 106.396 41.4162 105.583 42.4289C104.771 43.4765 103.654 44.0003 102.232 44.0003H87.0897ZM84.1649 37.2956C82.7431 37.2956 81.626 36.7892 80.8135 35.7765C80.001 34.7289 79.5948 33.4892 79.5948 32.0575C79.5948 30.6257 80.001 29.4035 80.8135 28.3908C81.626 27.3432 82.7431 26.8194 84.1649 26.8194H85.6578C87.0796 26.8194 88.1967 27.3432 89.0091 28.3908C89.8216 29.4035 90.2278 30.6257 90.2278 32.0575C90.2278 33.4892 89.8216 34.7289 89.0091 35.7765C88.1967 36.7892 87.0796 37.2956 85.6578 37.2956H84.1649ZM100.739 37.2956C99.3171 37.2956 98.2 36.7892 97.3876 35.7765C96.5751 34.7289 96.1689 33.4892 96.1689 32.0575C96.1689 30.6257 96.5751 29.4035 97.3876 28.3908C98.2 27.3432 99.3171 26.8194 100.739 26.8194H103.207C104.629 26.8194 105.746 27.3432 106.558 28.3908C107.371 29.4035 107.777 30.6257 107.777 32.0575C107.777 33.4892 107.371 34.7289 106.558 35.7765C105.746 36.7892 103.654 37.2956 102.232 37.2956H100.739ZM83.1899 30.5908C81.7681 30.5908 80.651 30.0844 79.8386 29.0717C79.0261 28.0241 78.6199 26.7844 78.6199 25.3527C78.6199 23.921 79.0261 22.6987 79.8386 21.686C80.651 20.6384 81.7681 20.1146 83.1899 20.1146H85.6578C87.0796 20.1146 88.1967 20.6384 89.0091 21.686C89.8216 22.6987 90.2278 23.921 90.2278 25.3527C90.2278 26.7844 89.8216 28.0241 89.0091 29.0717C88.1967 30.0844 87.0796 30.5908 85.6578 30.5908H83.1899ZM100.739 30.5908C99.3171 30.5908 98.2 30.0844 97.3876 29.0717C96.5751 28.0241 96.1689 26.7844 96.1689 25.3527C96.1689 23.921 96.5751 22.6987 97.3876 21.686C98.2 20.6384 99.3171 20.1146 100.739 20.1146H103.207C104.629 20.1146 105.746 20.6384 106.558 21.686C107.371 22.6987 107.777 23.921 107.777 25.3527C107.777 26.7844 107.371 28.0241 106.558 29.0717C105.746 30.0844 104.629 30.5908 103.207 30.5908H100.739ZM83.1899 23.886C81.7681 23.886 80.651 23.3797 79.8386 22.367C79.0261 21.3194 78.6199 20.0797 78.6199 18.6479C78.6199 17.2162 79.0261 15.994 79.8386 14.9813C80.651 13.9336 81.7681 13.4098 83.1899 13.4098H85.6578C87.0796 13.4098 88.1967 13.9336 89.0091 14.9813C89.8216 15.994 90.2278 17.2162 90.2278 18.6479C90.2278 20.0797 89.8216 21.3194 89.0091 22.367C88.1967 23.3797 87.0796 23.886 85.6578 23.886H83.1899ZM100.739 23.886C99.3171 23.886 98.2 23.3797 97.3876 22.367C96.5751 21.3194 96.1689 20.0797 96.1689 18.6479C96.1689 17.2162 96.5751 15.994 97.3876 14.9813C98.2 13.9336 99.3171 13.4098 100.739 13.4098H103.207C104.629 13.4098 105.746 13.9336 106.558 14.9813C107.371 15.994 107.777 17.2162 107.777 18.6479C107.777 20.0797 107.371 21.3194 106.558 22.367C105.746 23.3797 104.629 23.886 103.207 23.886H100.739ZM83.1899 17.1813C81.7681 17.1813 80.651 16.6749 79.8386 15.6622C79.0261 14.6146 78.6199 13.3749 78.6199 11.9432C78.6199 10.5114 79.0261 9.28921 79.8386 8.27651C80.651 7.22889 81.7681 6.70508 83.1899 6.70508H85.6578C87.0796 6.70508 88.1967 7.22889 89.0091 8.27651C89.8216 9.28921 90.2278 10.5114 90.2278 11.9432C90.2278 13.3749 89.8216 14.6146 89.0091 15.6622C88.1967 16.6749 87.0796 17.1813 85.6578 17.1813H83.1899ZM100.739 17.1813C99.3171 17.1813 98.2 16.6749 97.3876 15.6622C96.5751 14.6146 96.1689 13.3749 96.1689 11.9432C96.1689 10.5114 96.5751 9.28921 97.3876 8.27651C98.2 7.22889 99.3171 6.70508 100.739 6.70508H103.207C104.629 6.70508 105.746 7.22889 106.558 8.27651C107.371 9.28921 107.777 10.5114 107.777 11.9432C107.777 13.3749 107.371 14.6146 106.558 15.6622C105.746 16.6749 104.629 17.1813 103.207 17.1813H100.739Z" fill="#343434"/>
<path d="M51.1418 44.0003C49.72 44.0003 48.6029 43.4765 47.7905 42.4289C46.978 41.4162 46.5718 40.194 46.5718 38.7622C46.5718 37.3305 46.978 36.1083 47.7905 35.0956C48.6029 34.0479 49.72 33.5241 51.1418 33.5241H54.5846C56.0064 33.5241 57.1235 34.0479 57.936 35.0956C58.7484 36.1083 59.1547 37.3305 59.1547 38.7622C59.1547 40.194 58.7484 41.4162 57.936 42.4289C57.1235 43.4765 56.0064 44.0003 54.5846 44.0003H51.1418ZM51.1418 37.2956C49.72 37.2956 48.6029 36.7892 47.7905 35.7765C46.978 34.7289 46.5718 33.4892 46.5718 32.0575C46.5718 30.6257 46.978 29.4035 47.7905 28.3908C48.6029 27.3432 49.72 26.8194 51.1418 26.8194H54.5846C56.0064 26.8194 57.1235 27.3432 57.936 28.3908C58.7484 29.4035 59.1547 30.6257 59.1547 32.0575C59.1547 33.4892 58.7484 34.7289 57.936 35.7765C57.1235 36.7892 56.0064 37.2956 54.5846 37.2956H51.1418ZM51.1418 30.5908C49.72 30.5908 48.6029 30.0844 47.7905 29.0717C46.978 28.0241 46.5718 26.7844 46.5718 25.3527C46.5718 23.921 46.978 22.6987 47.7905 21.686C48.6029 20.6384 49.72 20.1146 51.1418 20.1146H54.5846C56.0064 20.1146 57.1235 20.6384 57.936 21.686C58.7484 22.6987 59.1547 23.921 59.1547 25.3527C59.1547 26.7844 58.7484 28.0241 57.936 29.0717C57.1235 30.0844 56.0064 30.5908 54.5846 30.5908H51.1418ZM51.1418 23.886C49.72 23.886 48.6029 23.3797 47.7905 22.367C46.978 21.3194 46.5718 20.0797 46.5718 18.6479C46.5718 17.2162 46.978 15.994 47.7905 14.9813C48.6029 13.9336 49.72 13.4098 51.1418 13.4098H54.5846C56.0064 13.4098 57.1235 13.9336 57.936 14.9813C58.7484 15.994 59.1547 17.2162 59.1547 18.6479C59.1547 20.0797 58.7484 21.3194 57.936 22.367C57.1235 23.3797 56.0064 23.886 54.5846 23.886H51.1418ZM68.6908 22.5451C67.269 22.5451 66.1519 22.0387 65.3395 21.026C64.527 19.9784 64.1208 18.7387 64.1208 17.307C64.1208 15.8752 64.527 14.653 65.3395 13.6403C66.1519 12.5927 67.269 12.0689 68.6908 12.0689H73.1086C74.5304 12.0689 75.6475 12.5927 76.4599 13.6403C77.2724 14.653 77.6786 15.8752 77.6786 17.307C77.6786 18.7387 77.2724 19.9784 76.4599 21.026C75.6475 22.0387 74.5304 22.5451 73.1086 22.5451H68.6908ZM55.0416 17.1813C53.6198 17.1813 52.5027 16.6749 51.6902 15.6622C50.8778 14.6146 50.4716 13.3749 50.4716 11.9432C50.4716 10.5114 50.8778 9.28921 51.6902 8.27651C52.5027 7.22889 53.6198 6.70508 55.0416 6.70508H70.1837C71.6055 6.70508 72.7226 7.22889 73.5351 8.27651C74.3475 9.28921 74.7538 10.5114 74.7538 11.9432C74.7538 13.3749 74.3475 14.6146 73.5351 15.6622C72.7226 16.6749 71.6055 17.1813 70.1837 17.1813C68.7619 17.1813 55.0416 17.1813 55.0416 17.1813Z" fill="#343434"/>
<path d="M29.5015 44C28.2217 44 27.2161 43.4803 26.4848 42.441C25.7535 41.4363 25.3879 40.2238 25.3879 38.8034C25.3879 37.383 25.7535 36.1704 26.4848 35.1657C27.2161 34.1264 28.2217 33.6067 29.5015 33.6067H40.4985C41.7783 33.6067 42.7839 34.1264 43.5152 35.1657C44.2465 36.1704 44.6121 37.383 44.6121 38.8034C44.6121 40.2238 44.2465 41.4363 43.5152 42.441C42.7839 43.4803 41.7783 44 40.4985 44H29.5015ZM25.1136 37.3483C23.8338 37.3483 22.8283 36.846 22.097 35.8413C21.3657 34.802 21 33.5721 21 32.1517C21 30.7313 21.3657 29.5187 22.097 28.514C22.8283 27.4747 23.8338 26.9551 25.1136 26.9551H28.2125C29.4923 26.9551 30.4979 27.4747 31.2292 28.514C31.9605 29.5187 32.3262 30.7313 32.3262 32.1517C32.3262 33.5721 31.9605 34.802 31.2292 35.8413C30.4979 36.846 29.4923 37.3483 28.2125 37.3483H25.1136ZM41.7875 37.3483C40.5077 37.3483 39.5021 36.846 38.7708 35.8413C38.0395 34.802 37.6738 33.5721 37.6738 32.1517C37.6738 30.7313 38.0395 29.5187 38.7708 28.514C39.5021 27.4747 40.5077 26.9551 41.7875 26.9551H44.8864C46.1662 26.9551 47.1717 27.4747 47.903 28.514C48.6343 29.5187 49 30.7313 49 32.1517C49 33.5721 48.6343 34.802 47.903 35.8413C47.1717 36.846 46.1662 37.3483 44.8864 37.3483H41.7875ZM25.1136 30.6966C23.8338 30.6966 22.8283 30.1943 22.097 29.1896C21.3657 28.1503 21 26.9204 21 25.5C21 24.0796 21.3657 22.867 22.097 21.8624C22.8283 20.823 23.8338 20.3034 25.1136 20.3034H28.2125C29.4923 20.3034 30.4979 20.823 31.2292 21.8624C31.9605 22.867 32.3262 24.0796 32.3262 25.5C32.3262 26.9204 31.9605 28.1503 31.2292 29.1896C30.4979 30.1943 29.4923 30.6966 28.2125 30.6966H25.1136ZM41.7875 30.6966C40.5077 30.6966 39.5021 30.1943 38.7708 29.1896C38.0395 28.1503 37.6738 26.9204 37.6738 25.5C37.6738 24.0796 38.0395 22.867 38.7708 21.8624C39.5021 20.823 40.5077 20.3034 41.7875 20.3034H44.8864C46.1662 20.3034 47.1717 20.823 47.903 21.8624C48.6343 22.867 49 24.0796 49 25.5C49 26.9204 48.6343 28.1503 47.903 29.1896C47.1717 30.1943 46.1662 30.6966 44.8864 30.6966H41.7875ZM25.1136 24.0449C23.8338 24.0449 22.8283 23.5426 22.097 22.5379C21.3657 21.4986 21 20.2687 21 18.8483C21 17.4279 21.3657 16.2154 22.097 15.2107C22.8283 14.1713 23.8338 13.6517 25.1136 13.6517H28.2125C29.4923 13.6517 30.4979 14.1713 31.2292 15.2107C31.9605 16.2154 32.3262 17.4279 32.3262 18.8483C32.3262 20.2687 31.9605 21.4986 31.2292 22.5379C30.4979 23.5426 29.4923 24.0449 28.2125 24.0449H25.1136ZM41.7875 24.0449C40.5077 24.0449 39.5021 23.5426 38.7708 22.5379C38.0395 21.4986 37.6738 20.2687 37.6738 18.8483C37.6738 17.4279 38.0395 16.2154 38.7708 15.2107C39.5021 14.1713 40.5077 13.6517 41.7875 13.6517H44.8864C46.1662 13.6517 47.1717 14.1713 47.903 15.2107C48.6343 16.2154 49 17.4279 49 18.8483C49 20.2687 48.6343 21.4986 47.903 22.5379C47.1717 23.5426 46.1662 24.0449 44.8864 24.0449H41.7875ZM28.6239 17.3933C27.3441 17.3933 26.3386 16.8909 25.6072 15.8862C24.8759 14.8469 24.5103 13.617 24.5103 12.1966C24.5103 10.7762 24.8759 9.56367 25.6072 8.55899C26.3386 7.51966 27.3441 7 28.6239 7H40.4985C41.7783 7 42.7839 7.51966 43.5152 8.55899C44.2465 9.56367 44.6121 10.7762 44.6121 12.1966C44.6121 13.617 44.2465 14.8469 43.5152 15.8862C42.7839 16.8909 41.7783 17.3933 40.4985 17.3933H28.6239Z" fill="#343434"/>
<path d="M9.44478 44C8.02298 44 6.90586 43.4762 6.09341 42.4286C5.28095 41.4159 4.87472 40.1937 4.87472 38.7619C4.87472 37.3302 5.28095 36.1079 6.09341 35.0952C6.90586 34.0476 8.02298 33.5238 9.44478 33.5238H10.9377C12.3595 33.5238 13.4766 34.0476 14.289 35.0952C15.1015 36.1079 15.5077 37.3302 15.5077 38.7619C15.5077 40.1937 15.1015 41.4159 14.289 42.4286C13.4766 43.4762 12.3595 44 10.9377 44H9.44478ZM9.44478 37.2952C8.02298 37.2952 6.90586 36.7889 6.09341 35.7762C5.28095 34.7286 4.87472 33.4889 4.87472 32.0571C4.87472 30.6254 5.28095 29.4032 6.09341 28.3905C6.90586 27.3429 8.02298 26.819 9.44478 26.819H10.9377C12.3595 26.819 13.4766 27.3429 14.289 28.3905C15.1015 29.4032 15.5077 30.6254 15.5077 32.0571C15.5077 33.4889 15.1015 34.7286 14.289 35.7762C13.4766 36.7889 12.3595 37.2952 10.9377 37.2952H9.44478ZM9.44478 30.5905C8.02298 30.5905 6.90586 30.0841 6.09341 29.0714C5.28095 28.0238 4.87472 26.7841 4.87472 25.3524C4.87472 23.9206 5.28095 22.6984 6.09341 21.6857C6.90586 20.6381 8.02298 20.1143 9.44478 20.1143H10.9377C12.3595 20.1143 13.4766 20.6381 14.289 21.6857C15.1015 22.6984 15.5077 23.9206 15.5077 25.3524C15.5077 26.7841 15.1015 28.0238 14.289 29.0714C13.4766 30.0841 12.3595 30.5905 10.9377 30.5905H9.44478ZM4.57005 23.8857C3.14826 23.8857 2.03114 23.3794 1.21868 22.3667C0.406227 21.319 0 20.0794 0 18.6476C0 17.2159 0.406227 15.9937 1.21868 14.981C2.03114 13.9333 3.14826 13.4095 4.57005 13.4095H23.6119C25.0337 13.4095 26.1509 13.9333 26.9633 14.981C27.7758 15.9937 28.182 17.2159 28.182 18.6476C28.182 20.0794 27.7758 21.319 26.9633 22.3667C26.1509 23.3794 25.0337 23.8857 23.6119 23.8857H4.57005ZM10.4197 17.181C8.99793 17.181 7.8808 16.6746 7.06835 15.6619C6.2559 14.6143 5.84967 13.3746 5.84967 11.9429C5.84967 10.5111 6.2559 9.28889 7.06835 8.27619C7.8808 7.22857 8.99793 6.70476 10.4197 6.70476H13.8625C15.2843 6.70476 16.4014 7.22857 17.2139 8.27619C18.0263 9.28889 18.4326 10.5111 18.4326 11.9429C18.4326 13.3746 18.0263 14.6143 17.2139 15.6619C16.4014 16.6746 15.2843 17.181 13.8625 17.181H10.4197ZM12.3696 10.4762C10.9478 10.4762 9.83069 9.96984 9.01824 8.95714C8.20579 7.90952 7.79956 6.66984 7.79956 5.2381C7.79956 3.80635 8.20579 2.58413 9.01824 1.57143C9.83069 0.523809 10.9478 0 12.3696 0H21.6119C23.0337 0 24.1509 0.523809 24.9633 1.57143C25.7758 2.58413 26.182 3.80635 26.182 5.2381C26.182 6.66984 25.7758 7.90952 24.9633 8.95714C24.1509 9.96984 23.0337 10.4762 21.6119 10.4762H12.3696Z" fill="#343434"/>
<path d="M94.5 38.9425C94.5 40.28 93.5375 40.9314 91.8171 40.9314C89.9625 40.9314 89 40.28 89 38.9425C89 37.605 90.1 37 91.8171 37C93.3352 37 94.5 37.605 94.5 38.9425Z" fill="#E9E9E9"/>
<path fill-rule="evenodd" clip-rule="evenodd" d="M91.4749 40.9324C91.9924 40.6199 92.3583 39.8513 92.3583 38.9527C92.3583 38.0798 92.013 37.3296 91.5189 37.001C90.9531 37.0294 90.4642 37.1295 90.0716 37.3063C89.759 37.6967 89.5596 38.2893 89.5596 38.9527C89.5596 39.6529 89.7817 40.2741 90.1246 40.6621C90.4884 40.8139 90.9392 40.9037 91.4749 40.9324Z" fill="#5B3716"/>
<path d="M102.5 38.9425C102.5 40.28 101.537 40.9314 99.8171 40.9314C97.9625 40.9314 97 40.28 97 38.9425C97 37.605 98.1 37 99.8171 37C101.335 37 102.5 37.605 102.5 38.9425Z" fill="#E9E9E9"/>
<path fill-rule="evenodd" clip-rule="evenodd" d="M99.3113 40.9324C99.8288 40.6199 100.195 39.8513 100.195 38.9527C100.195 38.0798 99.8494 37.3296 99.3554 37.001C98.7896 37.0294 98.3006 37.1295 97.908 37.3063C97.5954 37.6967 97.396 38.2893 97.396 38.9527C97.396 39.6529 97.6181 40.2741 97.961 40.6621C98.3249 40.8139 98.7757 40.9037 99.3113 40.9324Z" fill="#5B3716"/>
<path d="M66.28 10.5726C65.8 11.3589 64.7004 12.1451 63.64 12.1451C62.5796 12.1451 61.48 11.3589 61 10.5726C61.48 9.78629 62.5796 9 63.64 9C64.7004 9 65.8 9.78629 66.28 10.5726Z" fill="#E9E9E9"/>
<path d="M65.3961 10.5726C65.3961 11.4411 64.8589 12.1451 64.1961 12.1451C63.5334 12.1451 62.9961 11.4411 62.9961 10.5726C62.9961 9.70406 63.5334 9 64.1961 9C64.8589 9 65.3961 9.70406 65.3961 10.5726Z" fill="#343434"/>
<path d="M73 10.5726C72.52 11.3589 71.4204 12.1451 70.36 12.1451C69.2996 12.1451 68.2 11.3589 67.72 10.5726C68.2 9.78629 69.2996 9 70.36 9C71.4204 9 72.52 9.78629 73 10.5726Z" fill="#E9E9E9"/>
<path d="M72.1164 10.5726C72.1164 11.4411 71.5791 12.1451 70.9164 12.1451C70.2536 12.1451 69.7164 11.4411 69.7164 10.5726C69.7164 9.70406 70.2536 9 70.9164 9C71.5791 9 72.1164 9.70406 72.1164 10.5726Z" fill="#343434"/>
</svg>
